<svg xmlns="http://www.w3.org/2000/svg" viewBox="0 0 32 32" role="img" aria-label="No Studs" shape-rendering="crispEdges">
  <rect width="32" height="32" fill="#faf5ff"/>
  <rect x="0.5" y="0.5" width="31" height="31" fill="none" stroke="#2c1250" stroke-width="1"/>
  <rect x="6" y="10" width="1" height="1" fill="#e52521"/>
  <rect x="7" y="10" width="1" height="1" fill="#e52521"/>
  <rect x="8" y="10" width="1" height="1" fill="#e52521"/>
  <rect x="9" y="10" width="1" height="1" fill="#e52521"/>
  <rect x="10" y="10" width="1" height="1" fill="#e52521"/>
  <rect x="5" y="11" width="1" height="1" fill="#e52521"/>
  <rect x="6" y="11" width="1" height="1" fill="#e52521"/>
  <rect x="7" y="11" width="1" height="1" fill="#e52521"/>
  <rect x="8" y="11" width="1" height="1" fill="#e52521"/>
  <rect x="9" y="11" width="1" height="1" fill="#e52521"/>
  <rect x="10" y="11" width="1" height="1" fill="#e52521"/>
  <rect x="11" y="11" width="1" height="1" fill="#e52521"/>
  <rect x="3" y="12" width="1" height="1" fill="#e52521"/>
  <rect x="4" y="12" width="1" height="1" fill="#e52521"/>
  <rect x="5" y="12" width="1" height="1" fill="#e52521"/>
  <rect x="6" y="12" width="1" height="1" fill="#e52521"/>
  <rect x="7" y="12" width="1" height="1" fill="#e52521"/>
  <rect x="8" y="12" width="1" height="1" fill="#e52521"/>
  <rect x="9" y="12" width="1" height="1" fill="#e52521"/>
  <rect x="10" y="12" width="1" height="1" fill="#e52521"/>
  <rect x="11" y="12" width="1" height="1" fill="#e52521"/>
  <rect x="5" y="13" width="1" height="1" fill="#e52521"/>
  <rect x="6" y="13" width="1" height="1" fill="#e52521"/>
  <rect x="7" y="13" width="1" height="1" fill="#e52521"/>
  <rect x="8" y="13" width="1" height="1" fill="#e52521"/>
  <rect x="9" y="13" width="1" height="1" fill="#e52521"/>
  <rect x="10" y="13" width="1" height="1" fill="#e52521"/>
  <rect x="11" y="13" width="1" height="1" fill="#e52521"/>
  <rect x="4" y="14" width="1" height="1" fill="#f3efe6"/>
  <rect x="5" y="14" width="1" height="1" fill="#e8a877"/>
  <rect x="6" y="14" width="1" height="1" fill="#e8a877"/>
  <rect x="7" y="14" width="1" height="1" fill="#e8a877"/>
  <rect x="8" y="14" width="1" height="1" fill="#e8a877"/>
  <rect x="9" y="14" width="1" height="1" fill="#e8a877"/>
  <rect x="10" y="14" width="1" height="1" fill="#e8a877"/>
  <rect x="11" y="14" width="1" height="1" fill="#e8a877"/>
  <rect x="12" y="14" width="1" height="1" fill="#f3efe6"/>
  <rect x="4" y="15" width="1" height="1" fill="#f3efe6"/>
  <rect x="5" y="15" width="1" height="1" fill="#e8a877"/>
  <rect x="6" y="15" width="1" height="1" fill="#262230"/>
  <rect x="7" y="15" width="1" height="1" fill="#e8a877"/>
  <rect x="8" y="15" width="1" height="1" fill="#e8a877"/>
  <rect x="9" y="15" width="1" height="1" fill="#e8a877"/>
  <rect x="10" y="15" width="1" height="1" fill="#262230"/>
  <rect x="11" y="15" width="1" height="1" fill="#e8a877"/>
  <rect x="12" y="15" width="1" height="1" fill="#f3efe6"/>
  <rect x="5" y="16" width="1" height="1" fill="#e8a877"/>
  <rect x="6" y="16" width="1" height="1" fill="#e8a877"/>
  <rect x="7" y="16" width="1" height="1" fill="#e8a877"/>
  <rect x="8" y="16" width="1" height="1" fill="#e8a877"/>
  <rect x="9" y="16" width="1" height="1" fill="#e8a877"/>
  <rect x="10" y="16" width="1" height="1" fill="#e8a877"/>
  <rect x="11" y="16" width="1" height="1" fill="#e8a877"/>
  <rect x="5" y="17" width="1" height="1" fill="#e8a877"/>
  <rect x="6" y="17" width="1" height="1" fill="#e8a877"/>
  <rect x="7" y="17" width="1" height="1" fill="#e8a877"/>
  <rect x="8" y="17" width="1" height="1" fill="#262230"/>
  <rect x="9" y="17" width="1" height="1" fill="#e8a877"/>
  <rect x="10" y="17" width="1" height="1" fill="#e8a877"/>
  <rect x="11" y="17" width="1" height="1" fill="#e8a877"/>
  <rect x="6" y="18" width="1" height="1" fill="#e8a877"/>
  <rect x="7" y="18" width="1" height="1" fill="#e8a877"/>
  <rect x="8" y="18" width="1" height="1" fill="#e8a877"/>
  <rect x="9" y="18" width="1" height="1" fill="#e8a877"/>
  <rect x="10" y="18" width="1" height="1" fill="#e8a877"/>
  <rect x="7" y="19" width="1" height="1" fill="#e8a877"/>
  <rect x="8" y="19" width="1" height="1" fill="#f3efe6"/>
  <rect x="9" y="19" width="1" height="1" fill="#e8a877"/>
  <rect x="8" y="20" width="1" height="1" fill="#f3efe6"/>
  <rect x="20" y="10" width="1" height="1" fill="#43a047"/>
  <rect x="21" y="10" width="1" height="1" fill="#43a047"/>
  <rect x="22" y="10" width="1" height="1" fill="#43a047"/>
  <rect x="23" y="10" width="1" height="1" fill="#43a047"/>
  <rect x="24" y="10" width="1" height="1" fill="#43a047"/>
  <rect x="25" y="10" width="1" height="1" fill="#43a047"/>
  <rect x="26" y="10" width="1" height="1" fill="#43a047"/>
  <rect x="19" y="11" width="1" height="1" fill="#43a047"/>
  <rect x="20" y="11" width="1" height="1" fill="#43a047"/>
  <rect x="21" y="11" width="1" height="1" fill="#43a047"/>
  <rect x="22" y="11" width="1" height="1" fill="#43a047"/>
  <rect x="23" y="11" width="1" height="1" fill="#43a047"/>
  <rect x="24" y="11" width="1" height="1" fill="#43a047"/>
  <rect x="25" y="11" width="1" height="1" fill="#43a047"/>
  <rect x="26" y="11" width="1" height="1" fill="#43a047"/>
  <rect x="19" y="12" width="1" height="1" fill="#43a047"/>
  <rect x="20" y="12" width="1" height="1" fill="#43a047"/>
  <rect x="21" y="12" width="1" height="1" fill="#43a047"/>
  <rect x="22" y="12" width="1" height="1" fill="#43a047"/>
  <rect x="23" y="12" width="1" height="1" fill="#43a047"/>
  <rect x="24" y="12" width="1" height="1" fill="#43a047"/>
  <rect x="25" y="12" width="1" height="1" fill="#43a047"/>
  <rect x="26" y="12" width="1" height="1" fill="#43a047"/>
  <rect x="27" y="12" width="1" height="1" fill="#43a047"/>
  <rect x="28" y="12" width="1" height="1" fill="#43a047"/>
  <rect x="19" y="13" width="1" height="1" fill="#43a047"/>
  <rect x="20" y="13" width="1" height="1" fill="#43a047"/>
  <rect x="21" y="13" width="1" height="1" fill="#43a047"/>
  <rect x="22" y="13" width="1" height="1" fill="#43a047"/>
  <rect x="23" y="13" width="1" height="1" fill="#43a047"/>
  <rect x="24" y="13" width="1" height="1" fill="#43a047"/>
  <rect x="25" y="13" width="1" height="1" fill="#43a047"/>
  <rect x="26" y="13" width="1" height="1" fill="#43a047"/>
  <rect x="18" y="14" width="1" height="1" fill="#c4c4cf"/>
  <rect x="19" y="14" width="1" height="1" fill="#e8a877"/>
  <rect x="20" y="14" width="1" height="1" fill="#e8a877"/>
  <rect x="21" y="14" width="1" height="1" fill="#e8a877"/>
  <rect x="22" y="14" width="1" height="1" fill="#e8a877"/>
  <rect x="23" y="14" width="1" height="1" fill="#e8a877"/>
  <rect x="24" y="14" width="1" height="1" fill="#e8a877"/>
  <rect x="25" y="14" width="1" height="1" fill="#e8a877"/>
  <rect x="26" y="14" width="1" height="1" fill="#e8a877"/>
  <rect x="27" y="14" width="1" height="1" fill="#e8a877"/>
  <rect x="28" y="14" width="1" height="1" fill="#c4c4cf"/>
  <rect x="18" y="15" width="1" height="1" fill="#c4c4cf"/>
  <rect x="19" y="15" width="1" height="1" fill="#e8a877"/>
  <rect x="21" y="15" width="1" height="1" fill="#e8a877"/>
  <rect x="22" y="15" width="1" height="1" fill="#e8a877"/>
  <rect x="23" y="15" width="1" height="1" fill="#e8a877"/>
  <rect x="24" y="15" width="1" height="1" fill="#e8a877"/>
  <rect x="25" y="15" width="1" height="1" fill="#e8a877"/>
  <rect x="27" y="15" width="1" height="1" fill="#e8a877"/>
  <rect x="28" y="15" width="1" height="1" fill="#c4c4cf"/>
  <rect x="19" y="16" width="1" height="1" fill="#e8a877"/>
  <rect x="20" y="16" width="1" height="1" fill="#e8a877"/>
  <rect x="21" y="16" width="1" height="1" fill="#e8a877"/>
  <rect x="22" y="16" width="1" height="1" fill="#e8a877"/>
  <rect x="23" y="16" width="1" height="1" fill="#e8a877"/>
  <rect x="24" y="16" width="1" height="1" fill="#e8a877"/>
  <rect x="25" y="16" width="1" height="1" fill="#e8a877"/>
  <rect x="26" y="16" width="1" height="1" fill="#e8a877"/>
  <rect x="27" y="16" width="1" height="1" fill="#e8a877"/>
  <rect x="19" y="17" width="1" height="1" fill="#262230"/>
  <rect x="20" y="17" width="1" height="1" fill="#e8a877"/>
  <rect x="21" y="17" width="1" height="1" fill="#e8a877"/>
  <rect x="22" y="17" width="1" height="1" fill="#e8a877"/>
  <rect x="23" y="17" width="1" height="1" fill="#e8a877"/>
  <rect x="24" y="17" width="1" height="1" fill="#e8a877"/>
  <rect x="25" y="17" width="1" height="1" fill="#e8a877"/>
  <rect x="26" y="17" width="1" height="1" fill="#e8a877"/>
  <rect x="27" y="17" width="1" height="1" fill="#262230"/>
  <rect x="19" y="18" width="1" height="1" fill="#262230"/>
  <rect x="20" y="18" width="1" height="1" fill="#262230"/>
  <rect x="21" y="18" width="1" height="1" fill="#262230"/>
  <rect x="22" y="18" width="1" height="1" fill="#262230"/>
  <rect x="23" y="18" width="1" height="1" fill="#262230"/>
  <rect x="24" y="18" width="1" height="1" fill="#262230"/>
  <rect x="25" y="18" width="1" height="1" fill="#262230"/>
  <rect x="26" y="18" width="1" height="1" fill="#262230"/>
  <rect x="27" y="18" width="1" height="1" fill="#262230"/>
  <rect x="20" y="19" width="1" height="1" fill="#262230"/>
  <rect x="21" y="19" width="1" height="1" fill="#262230"/>
  <rect x="22" y="19" width="1" height="1" fill="#262230"/>
  <rect x="23" y="19" width="1" height="1" fill="#262230"/>
  <rect x="24" y="19" width="1" height="1" fill="#262230"/>
  <rect x="25" y="19" width="1" height="1" fill="#262230"/>
  <rect x="26" y="19" width="1" height="1" fill="#262230"/>
  <rect x="21" y="20" width="1" height="1" fill="#262230"/>
  <rect x="22" y="20" width="1" height="1" fill="#262230"/>
  <rect x="23" y="20" width="1" height="1" fill="#262230"/>
  <rect x="24" y="20" width="1" height="1" fill="#262230"/>
  <rect x="25" y="20" width="1" height="1" fill="#262230"/>
</svg>
